<?xml version="1.0" encoding="iso-8859-1"?>
<!-- Generator: Adobe Illustrator 17.1.0, SVG Export Plug-In . SVG Version: 6.00 Build 0)  -->
<!DOCTYPE svg PUBLIC "-//W3C//DTD SVG 1.1//EN" "http://www.w3.org/Graphics/SVG/1.1/DTD/svg11.dtd">
<svg version="1.1" id="Capa_1" xmlns="http://www.w3.org/2000/svg" xmlns:xlink="http://www.w3.org/1999/xlink" x="0px" y="0px"
	 viewBox="0 0 455 455" style="enable-background:new 0 0 455 455;" xml:space="preserve">
<g>
	<path d="M147.5,300c-31.706,0-57.5,25.794-57.5,57.5s25.794,57.5,57.5,57.5s57.5-25.794,57.5-57.5S179.206,300,147.5,300z
		 M147.5,400c-23.435,0-42.5-19.065-42.5-42.5s19.065-42.5,42.5-42.5s42.5,19.065,42.5,42.5S170.935,400,147.5,400z"/>
	<path d="M147.5,335c-12.407,0-22.5,10.094-22.5,22.5s10.093,22.5,22.5,22.5s22.5-10.094,22.5-22.5S159.907,335,147.5,335z
		 M147.5,365c-4.136,0-7.5-3.364-7.5-7.5s3.364-7.5,7.5-7.5s7.5,3.364,7.5,7.5S151.636,365,147.5,365z"/>
	<path d="M237.5,302.5c-8.271,0-15,6.729-15,15s6.729,15,15,15s15-6.729,15-15S245.771,302.5,237.5,302.5z"/>
	<path d="M37.5,244.5h30c4.142,0,7.5-3.357,7.5-7.5s-3.358-7.5-7.5-7.5h-30c-4.142,0-7.5,3.357-7.5,7.5S33.358,244.5,37.5,244.5z"/>
	<path d="M337.5,0C272.71,0,220,52.71,220,117.5c0,56.035,39.43,103.026,92,114.705V300h-17v-22.5c0-9.649-7.851-17.5-17.5-17.5
		h-260C7.851,260,0,267.851,0,277.5v160c0,9.649,7.851,17.5,17.5,17.5h260c9.649,0,17.5-7.851,17.5-17.5V415h60.5
		c4.143,0,7.5-3.357,7.5-7.5V232.2c24.702-5.48,47.159-18.907,63.767-38.292C444.974,172.656,455,145.521,455,117.5
		C455,52.71,402.29,0,337.5,0z M280,437.5c0,1.355-1.145,2.5-2.5,2.5h-260c-1.355,0-2.5-1.145-2.5-2.5v-160
		c0-1.355,1.145-2.5,2.5-2.5h260c1.355,0,2.5,1.145,2.5,2.5V437.5z M295,315h17v85h-17V315z M327,400V234.525
		c3.46,0.308,6.961,0.475,10.5,0.475c3.503,0,7.011-0.17,10.5-0.479V400H327z M354.285,218.634c-0.003,0-0.007,0.001-0.01,0.001
		C348.768,219.54,343.124,220,337.5,220C280.981,220,235,174.019,235,117.5S280.981,15,337.5,15S440,60.981,440,117.5
		C440,167.924,403.951,210.457,354.285,218.634z"/>
	<path d="M337.5,80c-20.678,0-37.5,16.822-37.5,37.5s16.822,37.5,37.5,37.5s37.5-16.822,37.5-37.5S358.178,80,337.5,80z M337.5,140
		c-12.406,0-22.5-10.094-22.5-22.5S325.094,95,337.5,95s22.5,10.094,22.5,22.5S349.906,140,337.5,140z"/>
	<path d="M337.5,170c-4.143,0-7.5,3.357-7.5,7.5v10c0,4.143,3.357,7.5,7.5,7.5s7.5-3.357,7.5-7.5v-10
		C345,173.357,341.643,170,337.5,170z"/>
	<path d="M378.835,161.633c-2.434-3.352-7.124-4.095-10.476-1.659c-3.351,2.434-4.094,7.124-1.659,10.476l5.877,8.09
		c1.467,2.021,3.754,3.093,6.073,3.093c1.528,0,3.071-0.466,4.402-1.434c3.351-2.434,4.094-7.124,1.659-10.476L378.835,161.633z"/>
	<path d="M406.392,131.998l-9.511-3.09c-3.935-1.276-8.171,0.875-9.45,4.815c-1.28,3.939,0.876,8.171,4.815,9.45l9.511,3.09
		c0.77,0.25,1.551,0.369,2.319,0.369c3.161,0,6.102-2.015,7.131-5.185C412.487,137.509,410.331,133.277,406.392,131.998z"/>
	<path d="M394.562,106.461c0.769,0,1.55-0.119,2.319-0.369l9.511-3.09c3.939-1.279,6.096-5.511,4.815-9.45
		c-1.279-3.94-5.516-6.091-9.45-4.815l-9.511,3.09c-3.939,1.279-6.096,5.511-4.815,9.45
		C388.46,104.446,391.4,106.461,394.562,106.461z"/>
	<path d="M383.053,54.802c-3.352-2.438-8.042-1.691-10.476,1.659l-5.877,8.09c-2.435,3.352-1.691,8.042,1.659,10.476
		c1.331,0.968,2.874,1.434,4.402,1.434c2.319,0,4.606-1.073,6.073-3.093l5.877-8.09C387.146,61.926,386.403,57.235,383.053,54.802z"
		/>
	<path d="M337.5,65c4.143,0,7.5-3.357,7.5-7.5v-10c0-4.143-3.357-7.5-7.5-7.5s-7.5,3.357-7.5,7.5v10C330,61.643,333.357,65,337.5,65
		z"/>
	<path d="M296.165,73.367c1.467,2.021,3.754,3.093,6.073,3.093c1.528,0,3.071-0.466,4.402-1.434
		c3.351-2.434,4.094-7.124,1.659-10.476l-5.877-8.09c-2.434-3.352-7.124-4.095-10.476-1.659c-3.351,2.434-4.094,7.124-1.659,10.476
		L296.165,73.367z"/>
	<path d="M282.754,91.826l-9.511-3.09c-3.936-1.275-8.171,0.875-9.45,4.815c-1.28,3.939,0.876,8.171,4.815,9.45l9.511,3.09
		c0.77,0.25,1.551,0.369,2.319,0.369c3.161,0,6.102-2.015,7.131-5.185C288.85,97.337,286.693,93.105,282.754,91.826z"/>
	<path d="M278.119,128.908l-9.511,3.09c-3.939,1.279-6.096,5.511-4.815,9.45c1.029,3.17,3.97,5.185,7.131,5.185
		c0.769,0,1.55-0.119,2.319-0.369l9.511-3.09c3.939-1.279,6.096-5.511,4.815-9.45C286.29,129.783,282.054,127.632,278.119,128.908z"
		/>
	<path d="M306.641,159.974c-3.352-2.438-8.043-1.691-10.476,1.659l-5.877,8.09c-2.435,3.352-1.691,8.042,1.659,10.476
		c1.331,0.968,2.874,1.434,4.402,1.434c2.319,0,4.606-1.073,6.073-3.093l5.877-8.09
		C310.734,167.098,309.991,162.407,306.641,159.974z"/>
</g>
<g>
</g>
<g>
</g>
<g>
</g>
<g>
</g>
<g>
</g>
<g>
</g>
<g>
</g>
<g>
</g>
<g>
</g>
<g>
</g>
<g>
</g>
<g>
</g>
<g>
</g>
<g>
</g>
<g>
</g>
</svg>
