<?xml version="1.0" encoding="utf-8"?>
<!-- Generator: Adobe Illustrator 16.0.0, SVG Export Plug-In . SVG Version: 6.00 Build 0)  -->
<!DOCTYPE svg PUBLIC "-//W3C//DTD SVG 1.1//EN" "http://www.w3.org/Graphics/SVG/1.1/DTD/svg11.dtd">
<svg version="1.1" id="Capa_1" xmlns="http://www.w3.org/2000/svg" xmlns:xlink="http://www.w3.org/1999/xlink" x="0px" y="0px"
	 width="144px" height="144px" viewBox="54 0 144 144" enable-background="new 54 0 144 144" xml:space="preserve">
<g>
	<path d="M100.681,94.945c-10.034,0-18.198,8.163-18.198,18.197c0,10.035,8.164,18.198,18.198,18.198
		c10.035,0,18.198-8.163,18.198-18.198C118.879,103.108,110.716,94.945,100.681,94.945z M100.681,129.487
		c-9.012,0-16.344-7.332-16.344-16.345c0-9.012,7.332-16.344,16.344-16.344c9.013,0,16.344,7.332,16.344,16.344
		C117.025,122.155,109.694,129.487,100.681,129.487z"/>
	<path d="M100.681,106.021c-3.926,0-7.121,3.195-7.121,7.121c0,3.927,3.194,7.121,7.121,7.121c3.927,0,7.121-3.194,7.121-7.121
		C107.802,109.217,104.608,106.021,100.681,106.021z M100.681,118.35c-2.87,0-5.207-2.337-5.207-5.208
		c0-2.87,2.336-5.205,5.207-5.205c2.872,0,5.208,2.335,5.208,5.205C105.889,116.013,103.552,118.35,100.681,118.35z"/>
	<path d="M129.165,95.736c-2.618,0-4.748,2.129-4.748,4.747s2.129,4.747,4.748,4.747c2.617,0,4.747-2.129,4.747-4.747
		S131.782,95.736,129.165,95.736z"/>
	<path d="M65.868,77.381h9.495c1.311,0,2.374-0.063,2.374-1.374s-1.063-1.374-2.374-1.374h-9.495c-1.311,0-2.374,0.063-2.374,1.374
		S64.557,77.381,65.868,77.381z"/>
	<path d="M160.813,0c-20.504,0-37.186,16.682-37.186,37.187c0,17.734,12.479,32.606,29.116,36.302v23.456h-5.379v-9.121
		c0-3.054-2.485-5.539-5.539-5.539H59.539c-3.054,0-5.539,2.485-5.539,5.539v50.637c0,3.055,2.485,5.539,5.539,5.539h82.286
		c3.054,0,5.539-2.484,5.539-5.539v-9.12h19.146c1.312,0,0.373,0.938,0.373-0.374V73.487c7.818-1.734,16.926-5.983,22.182-12.119
		C194.827,54.643,198,46.055,198,37.187C198,16.682,181.318,0,160.813,0z M145.615,138.461c0,0.43-3.362,3.539-3.791,3.539H59.539
		c-0.429,0-3.792-3.109-3.792-3.539V87.824c0-0.429,3.362-3.791,3.792-3.791h82.286c0.429,0,3.791,2.362,3.791,2.791V138.461z
		 M147.363,99.692h5.379v26.901h-5.379V99.692z M155.49,126.594V74.223c1.095,0.098,4.203,0.15,5.322,0.15
		c1.109,0,2.22-0.053,3.324-0.15v52.371H155.49z M166.493,71.414c0,0-0.002,0-0.003,0c-1.863,0.307-3.772,0.463-5.678,0.463
		c-19.128,0-34.689-15.562-34.689-34.69c0-19.128,15.562-34.69,34.689-34.69c19.13,0,34.69,15.562,34.69,34.69
		C195.503,54.251,183.303,68.646,166.493,71.414z"/>
	<path d="M160.813,25.319c-6.543,0-11.867,5.324-11.867,11.868c0,6.544,5.324,11.868,11.867,11.868
		c6.545,0,11.869-5.324,11.869-11.868C172.682,30.643,167.357,25.319,160.813,25.319z M160.813,46.564
		c-5.17,0-9.377-4.207-9.377-9.377s4.207-9.378,9.377-9.378c5.171,0,9.378,4.208,9.378,9.378S165.983,46.564,160.813,46.564z"/>
	<path d="M160.813,53.802c-1.311,0-2.373,1.063-2.373,2.374v3.165c0,1.311,1.063,2.374,2.373,2.374c1.313,0,2.375-1.063,2.375-2.374
		v-3.165C163.188,54.865,162.125,53.802,160.813,53.802z"/>
	<path d="M173.895,51.154c-0.77-1.061-2.254-1.296-3.314-0.525s-1.297,2.255-0.525,3.316l1.859,2.56
		c0.465,0.64,1.188,0.979,1.922,0.979c0.484,0,0.973-0.147,1.394-0.454c1.061-0.77,1.296-2.254,0.525-3.315L173.895,51.154z"/>
	<path d="M182.616,41.775l-3.01-0.978c-1.245-0.404-2.586,0.277-2.991,1.524c-0.404,1.247,0.277,2.586,1.523,2.991l3.011,0.978
		c0.243,0.079,0.491,0.117,0.733,0.117c1.001,0,1.932-0.638,2.258-1.641C184.545,43.52,183.863,42.18,182.616,41.775z"/>
	<path d="M178.873,33.693c0.242,0,0.49-0.038,0.733-0.117l3.01-0.978c1.247-0.405,1.93-1.744,1.524-2.991
		c-0.405-1.247-1.746-1.927-2.991-1.523l-3.011,0.978c-1.246,0.405-1.929,1.744-1.523,2.991
		C176.941,33.056,177.871,33.693,178.873,33.693z"/>
	<path d="M175.23,17.344c-1.062-0.771-2.546-0.535-3.316,0.525l-1.859,2.56c-0.771,1.061-0.535,2.545,0.525,3.315
		c0.421,0.307,0.909,0.454,1.393,0.454c0.734,0,1.458-0.34,1.922-0.979l1.86-2.561C176.525,19.599,176.29,18.114,175.23,17.344z"/>
	<path d="M160.813,20.571c1.313,0,2.375-1.063,2.375-2.374v-3.165c0-1.312-1.063-2.374-2.375-2.374
		c-1.311,0-2.373,1.063-2.373,2.374v3.165C158.439,19.509,159.502,20.571,160.813,20.571z"/>
	<path d="M147.731,23.219c0.464,0.64,1.188,0.979,1.922,0.979c0.483,0,0.972-0.147,1.394-0.454c1.061-0.771,1.295-2.255,0.525-3.315
		l-1.861-2.561c-0.77-1.061-2.254-1.296-3.314-0.525c-1.061,0.77-1.296,2.254-0.525,3.315L147.731,23.219z"/>
	<path d="M143.486,29.062l-3.01-0.978c-1.245-0.403-2.586,0.277-2.99,1.524c-0.405,1.247,0.277,2.586,1.523,2.991l3.01,0.978
		c0.244,0.079,0.491,0.117,0.734,0.117c1,0,1.932-0.638,2.257-1.641C145.416,30.806,144.733,29.466,143.486,29.062z"/>
	<path d="M142.02,40.797l-3.01,0.978c-1.246,0.405-1.93,1.744-1.523,2.991c0.326,1.003,1.256,1.641,2.257,1.641
		c0.243,0,0.49-0.038,0.733-0.117l3.01-0.978c1.247-0.405,1.93-1.744,1.524-2.991C144.605,41.074,143.266,40.394,142.02,40.797z"/>
	<path d="M151.047,50.629c-1.061-0.771-2.545-0.535-3.315,0.525l-1.86,2.56c-0.771,1.061-0.535,2.545,0.525,3.315
		c0.422,0.307,0.91,0.454,1.393,0.454c0.734,0,1.458-0.34,1.922-0.979l1.861-2.56C152.342,52.884,152.107,51.399,151.047,50.629z"/>
</g>
</svg>
