<?xml version="1.0" encoding="utf-8"?>
<!-- Generator: Adobe Illustrator 16.0.0, SVG Export Plug-In . SVG Version: 6.00 Build 0)  -->
<!DOCTYPE svg PUBLIC "-//W3C//DTD SVG 1.1//EN" "http://www.w3.org/Graphics/SVG/1.1/DTD/svg11.dtd">
<svg version="1.1" xmlns="http://www.w3.org/2000/svg" xmlns:xlink="http://www.w3.org/1999/xlink" x="0px" y="0px" width="262px"
	 height="86px" viewBox="0 0 262 86" enable-background="new 0 0 262 86" xml:space="preserve">
<g id="BACKGROUND" display="none">
	<rect x="-45.667" y="-561.332" display="inline" fill="#FFFFFF" width="800" height="800"/>
</g>
<g id="OBJECTS">
	<g>
		<g>
			<g>
				<path fill="#FFFFFF" d="M101.351,30.682c1.036,0.902,1.555,2.174,1.555,3.813c0,1.734-0.519,3.082-1.555,4.041
					s-2.492,1.439-4.367,1.439h-2.625v4.074h-3.844V29.328h6.469C98.859,29.328,100.315,29.779,101.351,30.682z M98.611,36.32
					c0.427-0.393,0.641-0.959,0.641-1.701c0-0.713-0.214-1.264-0.641-1.648s-1.032-0.578-1.816-0.578h-2.436v4.516h2.436
					C97.579,36.908,98.184,36.713,98.611,36.32z"/>
				<path fill="#FFFFFF" d="M105.887,29.328h3.844v6.006h5.942v-6.006h3.843v14.721h-3.843v-5.65h-5.942v5.65h-3.844V29.328z"/>
				<path fill="#FFFFFF" d="M134.542,30.084c1.21,0.658,2.163,1.561,2.855,2.709c0.693,1.148,1.04,2.436,1.04,3.863
					c0,1.441-0.347,2.744-1.04,3.906c-0.692,1.162-1.646,2.078-2.855,2.75c-1.212,0.672-2.566,1.01-4.063,1.01
					c-1.499,0-2.854-0.334-4.063-0.998c-1.212-0.666-2.163-1.582-2.856-2.752c-0.693-1.168-1.039-2.475-1.039-3.916
					c0-1.428,0.346-2.715,1.039-3.863s1.645-2.051,2.856-2.709c1.21-0.658,2.564-0.988,4.063-0.988
					C131.975,29.096,133.33,29.426,134.542,30.084z M128.493,32.918c-0.623,0.379-1.116,0.9-1.48,1.564
					c-0.364,0.666-0.546,1.396-0.546,2.195c0,0.813,0.186,1.551,0.557,2.215c0.371,0.666,0.864,1.189,1.48,1.576
					c0.616,0.385,1.288,0.576,2.017,0.576c0.728,0,1.396-0.191,2.005-0.576c0.609-0.387,1.089-0.91,1.438-1.576
					c0.35-0.664,0.525-1.402,0.525-2.215c0-0.799-0.176-1.529-0.525-2.195c-0.35-0.664-0.829-1.186-1.438-1.564
					c-0.608-0.377-1.277-0.566-2.005-0.566C129.792,32.352,129.116,32.541,128.493,32.918z"/>
				<path fill="#FFFFFF" d="M139.676,29.328h12.62v3.17h-4.409v11.551h-3.844V32.498h-4.367V29.328z"/>
				<path fill="#FFFFFF" d="M165.286,30.084c1.21,0.658,2.163,1.561,2.855,2.709c0.693,1.148,1.04,2.436,1.04,3.863
					c0,1.441-0.347,2.744-1.04,3.906c-0.692,1.162-1.646,2.078-2.855,2.75c-1.212,0.672-2.566,1.01-4.063,1.01
					c-1.499,0-2.854-0.334-4.063-0.998c-1.212-0.666-2.163-1.582-2.856-2.752c-0.693-1.168-1.039-2.475-1.039-3.916
					c0-1.428,0.346-2.715,1.039-3.863s1.645-2.051,2.856-2.709c1.21-0.658,2.564-0.988,4.063-0.988
					C162.719,29.096,164.074,29.426,165.286,30.084z M159.237,32.918c-0.623,0.379-1.116,0.9-1.48,1.564
					c-0.364,0.666-0.546,1.396-0.546,2.195c0,0.813,0.186,1.551,0.557,2.215c0.371,0.666,0.864,1.189,1.48,1.576
					c0.616,0.385,1.288,0.576,2.017,0.576c0.728,0,1.396-0.191,2.005-0.576c0.609-0.387,1.089-0.91,1.438-1.576
					c0.35-0.664,0.525-1.402,0.525-2.215c0-0.799-0.176-1.529-0.525-2.195c-0.35-0.664-0.829-1.186-1.438-1.564
					c-0.608-0.377-1.277-0.566-2.005-0.566C160.536,32.352,159.86,32.541,159.237,32.918z"/>
				<path fill="#FFFFFF" d="M172.183,29.328h4.18l4.263,8.609l4.242-8.609h4.179v14.721h-3.402l-0.021-9.324l-3.759,7.854h-2.479
					l-3.78-7.854v9.324h-3.423V29.328z"/>
				<path fill="#FFFFFF" d="M203.81,44.049l-1.008-2.604h-6.363l-1.029,2.604h-3.948l6.321-14.721h3.948l6.174,14.721H203.81z
					 M197.594,38.504h4.073l-2.016-5.25L197.594,38.504z"/>
				<path fill="#FFFFFF" d="M220.378,29.328h3.569v14.721h-3.359l-6.679-8.799v8.799h-3.591V29.328h3.381l6.699,8.861
					L220.378,29.328z"/>
				<path fill="#FFFFFF" d="M227.917,29.328h3.844v14.721h-3.844V29.328z"/>
				<path fill="#FFFFFF" d="M246.523,44.049l-1.008-2.604h-6.363l-1.029,2.604h-3.948l6.321-14.721h3.948l6.174,14.721H246.523z
					 M240.307,38.504h4.073l-2.016-5.25L240.307,38.504z"/>
			</g>
		</g>
		<g>
			<g>
				<path fill="#FFFFFF" d="M97.623,50.422c0.71,0.605,1.064,1.463,1.064,2.572c0,1.15-0.354,2.041-1.064,2.67
					c-0.71,0.631-1.715,0.945-3.016,0.945h-2.835V60h-1.034V49.514h3.869C95.908,49.514,96.913,49.816,97.623,50.422z M96.88,54.996
					c0.545-0.453,0.817-1.111,0.817-1.971c0-0.842-0.271-1.48-0.811-1.92c-0.54-0.441-1.314-0.66-2.325-0.66h-2.79v5.234h2.79
					C95.562,55.68,96.334,55.453,96.88,54.996z"/>
				<path fill="#FFFFFF" d="M104.928,49.514h1.034v4.801h6.556v-4.801h1.035V60h-1.035v-4.756h-6.556V60h-1.034V49.514z"/>
				<path fill="#FFFFFF" d="M128.23,50.137c0.835,0.475,1.497,1.117,1.987,1.928s0.735,1.701,0.735,2.67
					c0,0.971-0.245,1.865-0.735,2.686s-1.152,1.469-1.987,1.949s-1.753,0.721-2.752,0.721c-1.001,0-1.918-0.24-2.753-0.721
					s-1.498-1.129-1.987-1.949c-0.49-0.82-0.735-1.715-0.735-2.686c0-0.969,0.245-1.859,0.735-2.67
					c0.489-0.811,1.152-1.453,1.987-1.928s1.752-0.713,2.753-0.713C126.477,49.424,127.395,49.662,128.23,50.137z M123.273,50.939
					c-0.681,0.391-1.221,0.92-1.62,1.59c-0.4,0.67-0.601,1.406-0.601,2.205c0,0.801,0.2,1.541,0.601,2.221
					c0.399,0.68,0.939,1.217,1.62,1.611c0.68,0.396,1.42,0.594,2.22,0.594c0.79,0,1.522-0.197,2.197-0.594
					c0.675-0.395,1.213-0.932,1.612-1.611c0.4-0.68,0.601-1.42,0.601-2.221c0-0.799-0.2-1.535-0.601-2.205
					c-0.399-0.67-0.938-1.199-1.612-1.59s-1.407-0.584-2.197-0.584C124.693,50.355,123.953,50.549,123.273,50.939z"/>
				<path fill="#FFFFFF" d="M135.813,49.5h7.965v0.945h-3.465V60h-1.035v-9.555h-3.465V49.5z"/>
				<path fill="#FFFFFF" d="M156.28,50.137c0.835,0.475,1.497,1.117,1.987,1.928s0.735,1.701,0.735,2.67
					c0,0.971-0.245,1.865-0.735,2.686s-1.152,1.469-1.987,1.949s-1.753,0.721-2.752,0.721c-1.001,0-1.918-0.24-2.753-0.721
					s-1.498-1.129-1.987-1.949c-0.49-0.82-0.735-1.715-0.735-2.686c0-0.969,0.245-1.859,0.735-2.67
					c0.489-0.811,1.152-1.453,1.987-1.928s1.752-0.713,2.753-0.713C154.527,49.424,155.445,49.662,156.28,50.137z M151.323,50.939
					c-0.681,0.391-1.221,0.92-1.62,1.59c-0.4,0.67-0.601,1.406-0.601,2.205c0,0.801,0.2,1.541,0.601,2.221
					c0.399,0.68,0.939,1.217,1.62,1.611c0.68,0.396,1.42,0.594,2.22,0.594c0.79,0,1.522-0.197,2.197-0.594
					c0.675-0.395,1.213-0.932,1.612-1.611c0.4-0.68,0.601-1.42,0.601-2.221c0-0.799-0.2-1.535-0.601-2.205
					c-0.399-0.67-0.938-1.199-1.612-1.59s-1.407-0.584-2.197-0.584C152.743,50.355,152.002,50.549,151.323,50.939z"/>
				<path fill="#FFFFFF" d="M172.607,54.869h0.915v3.84c-0.51,0.43-1.103,0.768-1.777,1.014c-0.675,0.244-1.362,0.367-2.063,0.367
					c-0.99,0-1.902-0.24-2.737-0.721s-1.498-1.129-1.987-1.949c-0.49-0.82-0.735-1.715-0.735-2.686c0-0.969,0.245-1.859,0.735-2.67
					c0.489-0.811,1.157-1.453,2.002-1.928c0.846-0.475,1.768-0.713,2.768-0.713c0.71,0,1.397,0.125,2.063,0.375
					s1.253,0.602,1.763,1.051l-0.6,0.734c-0.431-0.398-0.926-0.707-1.485-0.922c-0.561-0.215-1.14-0.322-1.74-0.322
					c-0.81,0-1.555,0.197-2.234,0.592c-0.681,0.396-1.221,0.928-1.62,1.598c-0.4,0.67-0.601,1.406-0.601,2.205
					c0,0.811,0.2,1.553,0.601,2.229c0.399,0.674,0.942,1.209,1.627,1.604c0.686,0.396,1.433,0.594,2.243,0.594
					c0.5,0,0.997-0.084,1.492-0.248c0.495-0.166,0.952-0.398,1.372-0.697V54.869z"/>
				<path fill="#FFFFFF" d="M187.653,60l-2.266-3.42c-0.32,0.02-0.564,0.029-0.734,0.029h-2.881V60h-1.034V49.514h3.915
					c1.31,0,2.322,0.303,3.037,0.908s1.072,1.463,1.072,2.572c0,0.871-0.21,1.596-0.63,2.176s-1.02,0.984-1.8,1.215l2.52,3.615
					H187.653z M184.653,55.68c0.999,0,1.77-0.227,2.31-0.684c0.54-0.453,0.81-1.111,0.81-1.971c0-0.842-0.27-1.48-0.81-1.92
					c-0.54-0.441-1.311-0.66-2.31-0.66h-2.881v5.234H184.653z"/>
				<path fill="#FFFFFF" d="M203.583,60l-1.245-2.791h-5.82L195.287,60h-1.109l4.725-10.486h1.08L204.708,60H203.583z
					 M196.922,56.279h5.01l-2.521-5.67L196.922,56.279z"/>
				<path fill="#FFFFFF" d="M217.488,50.422c0.71,0.605,1.064,1.463,1.064,2.572c0,1.15-0.354,2.041-1.064,2.67
					c-0.71,0.631-1.715,0.945-3.016,0.945h-2.835V60h-1.034V49.514h3.869C215.773,49.514,216.778,49.816,217.488,50.422z
					 M216.746,54.996c0.545-0.453,0.817-1.111,0.817-1.971c0-0.842-0.271-1.48-0.811-1.92c-0.54-0.441-1.314-0.66-2.325-0.66h-2.79
					v5.234h2.79C215.427,55.68,216.2,55.453,216.746,54.996z"/>
				<path fill="#FFFFFF" d="M224.792,49.514h1.034v4.801h6.556v-4.801h1.035V60h-1.035v-4.756h-6.556V60h-1.034V49.514z"/>
				<path fill="#FFFFFF" d="M248.477,49.514l-4.035,6.75V60h-1.035v-3.736l-4.095-6.75h1.08l3.54,5.641l3.465-5.641H248.477z"/>
			</g>
		</g>
	</g>
	<g>
		<g>
			<g>
				<path fill="#FFFFFF" d="M7.851,42.529c-2.365-3.367-1.553-8.016,1.816-10.381l8.842-6.207l-8.466,2.205
					c-3.586,0.934-5.734,4.598-4.801,8.184l10.662,40.936c0.935,3.586,4.599,5.734,8.184,4.799l9.738-2.535L7.851,42.529z"/>
				<path fill="#FFFFFF" d="M59.373,72.875l5.651-1.473c2.854-0.744,4.792-3.217,4.995-6.002L59.373,72.875z"/>
			</g>
			<path fill="#FFFFFF" d="M45.375,78.932c-3.032,2.129-7.217,1.396-9.346-1.637L11.723,42.674c-2.13-3.031-1.397-7.217,1.636-9.346
				l34.62-24.305c3.032-2.129,7.217-1.398,9.347,1.635L81.63,45.279c2.13,3.033,1.396,7.217-1.636,9.346L45.375,78.932z"/>
			<g>
				<g>
					<g>
						<path fill="#FFFFFF" d="M66.023,62.35H28.571c-2.066,0-3.749-1.682-3.749-3.748V29.467c0-2.066,1.683-3.748,3.749-3.748h9.154
							v-1.438c0-2.066,1.681-3.748,3.745-3.748h9.944c2.064,0,3.747,1.682,3.747,3.748v1.438h10.861
							c2.065,0,3.747,1.682,3.747,3.748v29.135C69.77,60.668,68.088,62.35,66.023,62.35z M28.571,28.627
							c-0.464,0-0.841,0.377-0.841,0.84v29.135c0,0.463,0.377,0.842,0.841,0.842h37.452c0.464,0,0.839-0.379,0.839-0.842V29.467
							c0-0.463-0.375-0.84-0.839-0.84h-13.77v-4.346c0-0.463-0.376-0.84-0.839-0.84H41.47c-0.462,0-0.838,0.377-0.838,0.84v4.346
							H28.571z"/>
					</g>
					<g>
						<g>
							<g>
								<path fill="#FFFFFF" d="M47.308,24.539c-10.042,0-18.179,8.141-18.179,18.178c0,10.043,8.137,18.182,18.179,18.182
									c10.039,0,18.176-8.139,18.176-18.182C65.484,32.68,57.347,24.539,47.308,24.539z"/>
							</g>
							<g>
								<path fill="#FFFFFF" d="M46.921,55.809c-6.188,0-13.09-5.871-13.09-13.09s5.872-13.092,13.09-13.092
									c7.216,0,13.086,5.873,13.086,13.092C60.007,49.936,54.137,55.809,46.921,55.809z"/>
							</g>
						</g>
					</g>
				</g>
				<g>
					<g>
						<circle fill="#FFFFFF" cx="47.331" cy="42.719" r="9.928"/>
					</g>
					<g>
						<g>
							<path fill="#FFFFFF" d="M40.967,46.068c-0.466,0-0.908-0.283-1.085-0.746c-0.354-0.914-0.532-1.879-0.532-2.869
								c0-4.4,3.581-7.98,7.981-7.98c0.642,0,1.161,0.52,1.161,1.164c0,0.639-0.52,1.158-1.161,1.158
								c-3.119,0-5.657,2.539-5.657,5.658c0,0.703,0.127,1.387,0.376,2.035c0.23,0.598-0.068,1.271-0.667,1.502
								C41.248,46.043,41.107,46.068,40.967,46.068z"/>
						</g>
					</g>
				</g>
			</g>
		</g>
	</g>
</g>
<g id="DESIGNED_BY_FREEPIK">
	<g>
	</g>
	<g>
	</g>
	<g>
	</g>
	<g>
	</g>
	<g>
	</g>
	<g>
	</g>
</g>
</svg>
